<?xml version="1.0" encoding="utf-8"?>
<!-- Generator: Adobe Illustrator 25.3.1, SVG Export Plug-In . SVG Version: 6.00 Build 0)  -->
<svg version="1.1" id="Camada_1" xmlns="http://www.w3.org/2000/svg" xmlns:xlink="http://www.w3.org/1999/xlink" x="0px" y="0px"
	 viewBox="0 0 160 50" style="enable-background:new 0 0 160 50;" xml:space="preserve">
<style type="text/css">
	.st0{fill:#565677;}
	.st1{fill-rule:evenodd;clip-rule:evenodd;fill:#565677;}
	.st2{fill:#AA33B5;}
	.st3{fill:#FFFFFF;}
</style>
<g id="download_apple">
	<g id="Rectangle_2">
		<path class="st0" d="M154.6,50h-4.9v-1h4.8L154.6,50z M144.8,50H140v-1h4.9V50z M135.1,50h-4.9v-1h4.9V50z M125.4,50h-4.9v-1h4.9
			V50z M115.6,50h-4.9v-1h4.9V50z M105.9,50H101v-1h4.9V50z M96.2,50h-4.9v-1h4.9V50z M86.4,50h-4.9v-1h4.9V50z M76.7,50h-4.9v-1
			h4.9V50z M67,50h-4.9v-1H67V50z M57.2,50h-4.9v-1h4.9V50z M47.5,50h-4.9v-1h4.9V50z M37.8,50h-4.9v-1h4.9V50z M28,50h-4.9v-1H28
			V50z M18.3,50h-4.9v-1h4.9V50z M8.6,50H5.5c-0.7,0-1.3-0.1-1.9-0.3l0.3-0.9c0.5,0.2,1,0.3,1.6,0.3h3.1V50z M159.1,47.6l-0.8-0.5
			c0.5-0.7,0.7-1.6,0.7-2.4v-1.9h1v1.9C160,45.7,159.7,46.7,159.1,47.6z M0.1,45.9C0,45.5,0,45,0,44.6V41h1v3.7c0,0.3,0,0.7,0.1,1
			L0.1,45.9z M160,37.9h-1v-4.8h1V37.9z M1,36.2H0v-4.8h1V36.2z M160,28.3h-1v-4.8h1V28.3z M1,26.6H0v-4.8h1V26.6z M160,18.7h-1
			v-4.8h1V18.7z M1,17H0v-4.8h1V17z M160,9.1h-1V5.4c0-0.3,0-0.7-0.1-1l1-0.2C160,4.6,160,5,160,5.4V9.1z M1,7.3H0v-2
			c0-1.1,0.3-2.1,0.9-3L1.7,3C1.2,3.7,1,4.5,1,5.4V7.3z M156.1,1.3c-0.5-0.2-1-0.3-1.6-0.3h-3.1V0h3.1c0.7,0,1.3,0.1,1.9,0.3
			L156.1,1.3z M146.6,1h-4.9V0h4.9V1z M136.9,1H132V0h4.9V1z M127.1,1h-4.9V0h4.9V1z M117.4,1h-4.9V0h4.9V1z M107.7,1h-4.9V0h4.9V1z
			 M97.9,1h-4.9V0h4.9V1z M88.2,1h-4.9V0h4.9V1z M78.5,1h-4.9V0h4.9V1z M68.7,1h-4.9V0h4.9V1z M59,1h-4.9V0H59V1z M49.3,1h-4.9V0
			h4.9V1z M39.5,1h-4.9V0h4.9V1z M29.8,1h-4.9V0h4.9V1z M20.1,1h-4.9V0h4.9V1z M10.3,1H5.5l0-0.7l0-0.3h4.9V1z"/>
	</g>
	<g id="Shape">
		<path class="st1" d="M31.4,8.5c0.3,1.8-0.5,3.6-1.5,4.9c-1,1.4-2.9,2.4-4.6,2.3c-0.3-1.7,0.5-3.5,1.5-4.8
			C28,9.6,29.8,8.6,31.4,8.5z M36.7,34.1c0.9-1.4,1.2-2.1,1.9-3.6c-5.1-1.9-5.9-9.2-0.9-11.9c-1.5-1.9-3.7-3-5.7-3
			c-1.5,0-2.5,0.4-3.4,0.7c-0.8,0.3-1.5,0.6-2.3,0.6c-0.9,0-1.7-0.3-2.6-0.6c-0.9-0.3-1.9-0.7-3.1-0.7c-2.3,0-4.7,1.4-6.3,3.8
			c-2.2,3.4-1.8,9.7,1.7,15.1c1.3,1.9,2.9,4.1,5.1,4.1c0.9,0,1.5-0.3,2.2-0.6c0.8-0.3,1.6-0.7,3-0.7c1.4,0,2.2,0.4,3,0.7
			c0.6,0.3,1.2,0.6,2.1,0.6C33.7,38.5,35.4,36.1,36.7,34.1z"/>
	</g>
	<g id="Group_2_x5F_2">
		<g id="DOWNLOAD_ON_THE">
			<path class="st0" d="M51.2,10.5v6h2.1c2,0,2.7-1.3,2.7-3c0-1.8-0.7-3-2.7-3H51.2z M52.2,11.4h0.9c1.3,0,1.7,0.9,1.7,2.1
				c0,1.5-0.6,2.1-1.7,2.1h-0.9V11.4z M58.5,13.1c0-1.2,0.6-1.8,1.4-1.8c0.8,0,1.4,0.6,1.4,1.8v0.8c0,1.2-0.6,1.8-1.4,1.8
				c-0.8,0-1.4-0.6-1.4-1.8V13.1z M57.4,13.9c0,1.7,1,2.7,2.5,2.7c1.6,0,2.5-1,2.5-2.7v-0.8c0-1.7-1-2.7-2.5-2.7
				c-1.6,0-2.5,1-2.5,2.7C57.4,13.1,57.4,13.9,57.4,13.9z M66.2,16.5l1.2-4.3h0l1.2,4.3h1l1.6-6H70l-1,4.4h0l-1.1-4.4h-1l-1.1,4.4h0
				l-1-4.4h-1.1l1.6,6H66.2z M73.6,16.5v-4.2h0l2.8,4.2h0.9v-6h-1v4.2h0l-2.8-4.2h-0.9v6H73.6z M83,15.6h-2.6v-5.1h-1.1v6H83V15.6z
				 M85.3,13.1c0-1.2,0.6-1.8,1.4-1.8c0.8,0,1.4,0.6,1.4,1.8v0.8c0,1.2-0.6,1.8-1.4,1.8c-0.8,0-1.4-0.6-1.4-1.8V13.1z M84.2,13.9
				c0,1.7,1,2.7,2.5,2.7c1.6,0,2.5-1,2.5-2.7v-0.8c0-1.7-1-2.7-2.5-2.7c-1.6,0-2.5,1-2.5,2.7C84.2,13.1,84.2,13.9,84.2,13.9z
				 M91.4,16.5l0.5-1.6H94l0.5,1.6h1.1l-2-6h-1.2l-2,6H91.4z M93,11.6l0.8,2.5h-1.6L93,11.6L93,11.6z M97.1,10.5v6h2.1
				c2,0,2.7-1.3,2.7-3c0-1.8-0.7-3-2.7-3H97.1z M98.2,11.4h0.9c1.3,0,1.7,0.9,1.7,2.1c0,1.5-0.6,2.1-1.7,2.1h-0.9V11.4z M107,13.1
				c0-1.2,0.6-1.8,1.4-1.8c0.8,0,1.4,0.6,1.4,1.8v0.8c0,1.2-0.6,1.8-1.4,1.8c-0.8,0-1.4-0.6-1.4-1.8V13.1z M105.9,13.9
				c0,1.7,1,2.7,2.5,2.7c1.6,0,2.5-1,2.5-2.7v-0.8c0-1.7-1-2.7-2.5-2.7c-1.6,0-2.5,1-2.5,2.7V13.9z M113.7,16.5v-4.2h0l2.8,4.2h0.9
				v-6h-1v4.2h0l-2.8-4.2h-0.9v6H113.7z M124.2,16.5v-5.1h1.7v-0.9h-4.5v0.9h1.7v5.1H124.2z M132.2,16.5v-6h-1.1V13h-2.7v-2.5h-1.1
				v6h1.1v-2.6h2.7v2.6H132.2z M138,15.6h-2.7v-1.7h2.6V13h-2.6v-1.6h2.7v-0.9h-3.8v6h3.8V15.6z"/>
		</g>
		<g id="App_Store">
			<path class="st0" d="M49.2,38.5l5.2-15.3h3.1l5.2,15.3h-2.9l-1.3-4.1h-5.3l-1.3,4.1H49.2z M53.8,32.3h4.1l-2-6.4h-0.1L53.8,32.3z
				 M64.4,42.5V26.6H67v1.7h0.1c0.2-0.6,0.7-1,1.3-1.4c0.6-0.3,1.4-0.5,2.2-0.5c1.4,0,2.4,0.5,3.2,1.4c0.8,1,1.2,2.3,1.2,4v1.4
				c0,1.7-0.4,3-1.2,4c-0.8,0.9-1.9,1.4-3.3,1.4c-0.9,0-1.6-0.2-2.2-0.5c-0.6-0.3-1-0.8-1.3-1.3h-0.1v5.7H64.4z M67.1,33.1
				c0,1,0.2,1.8,0.7,2.4c0.5,0.6,1.2,0.9,2,0.9c0.8,0,1.4-0.3,1.9-0.9c0.5-0.6,0.7-1.4,0.7-2.6v-1c0-1.1-0.2-2-0.7-2.5
				c-0.5-0.6-1.1-0.9-2-0.9c-0.8,0-1.5,0.3-2,0.9c-0.5,0.6-0.7,1.4-0.7,2.4L67.1,33.1L67.1,33.1z M77.4,42.5V26.6H80v1.7h0.1
				c0.2-0.6,0.7-1,1.3-1.4c0.6-0.3,1.4-0.5,2.2-0.5c1.4,0,2.4,0.5,3.2,1.4c0.8,1,1.2,2.3,1.2,4v1.4c0,1.7-0.4,3-1.2,4
				c-0.8,0.9-1.9,1.4-3.3,1.4c-0.9,0-1.6-0.2-2.2-0.5c-0.6-0.3-1-0.8-1.3-1.3h-0.1v5.7H77.4z M80.1,33.1c0,1,0.2,1.8,0.7,2.4
				c0.5,0.6,1.2,0.9,2,0.9c0.8,0,1.4-0.3,1.9-0.9c0.5-0.6,0.7-1.4,0.7-2.6v-1c0-1.1-0.2-2-0.7-2.5c-0.5-0.6-1.1-0.9-2-0.9
				c-0.8,0-1.5,0.3-2,0.9c-0.5,0.6-0.7,1.4-0.7,2.4V33.1z M93.9,34.2h2.6c0.1,0.7,0.4,1.3,1,1.7c0.6,0.4,1.4,0.7,2.4,0.7
				c1,0,1.7-0.2,2.2-0.6c0.5-0.4,0.8-1,0.8-1.7c0-0.6-0.2-1-0.6-1.3c-0.4-0.3-1-0.6-1.8-0.8l-2.5-0.6c-0.5-0.1-1-0.3-1.5-0.5
				c-0.4-0.2-0.8-0.5-1.2-0.8c-0.4-0.3-0.6-0.7-0.8-1.2c-0.2-0.5-0.3-1-0.3-1.6c0-1,0.3-1.8,0.8-2.5c0.5-0.7,1.2-1.2,2-1.6
				s1.8-0.5,2.8-0.5c1,0,2,0.2,2.8,0.5c0.8,0.4,1.5,0.9,2,1.6c0.5,0.7,0.8,1.5,0.8,2.4h-2.6c-0.1-0.7-0.3-1.2-0.9-1.7
				c-0.5-0.4-1.2-0.7-2.2-0.7c-0.9,0-1.6,0.2-2.1,0.6C97.3,26,97,26.5,97,27.2c0,1,0.7,1.7,2.1,2l2.5,0.6c0.6,0.1,1.2,0.3,1.6,0.5
				c0.5,0.2,0.9,0.5,1.3,0.8c0.4,0.3,0.7,0.7,0.9,1.2c0.2,0.5,0.3,1.1,0.3,1.7c0,1.5-0.5,2.6-1.6,3.5c-1.1,0.8-2.5,1.3-4.3,1.3
				c-0.8,0-1.6-0.1-2.3-0.3c-0.7-0.2-1.2-0.4-1.7-0.7c-0.4-0.3-0.8-0.7-1.1-1.1c-0.3-0.4-0.5-0.8-0.6-1.2
				C94,35.1,93.9,34.7,93.9,34.2z M107.1,28.8v-2.1h1.7v-3h2.6v3h2.3v2.1h-2.3v6.1c0,0.6,0.1,1,0.4,1.3c0.3,0.2,0.7,0.3,1.4,0.3
				c0.3,0,0.5,0,0.6,0v2c-0.4,0.1-0.8,0.1-1.2,0.1c-1,0-1.7-0.1-2.3-0.4s-0.9-0.6-1.2-1.1c-0.2-0.5-0.3-1.1-0.3-2v-6.4H107.1z
				 M115.3,33v-0.8c0-1.1,0.2-2.1,0.6-2.9c0.4-0.8,1-1.5,1.8-2c0.8-0.5,1.8-0.8,3-0.8c1.7,0,3.1,0.5,4,1.5c0.9,1,1.4,2.4,1.4,4.1V33
				c0,1.8-0.5,3.2-1.4,4.2c-0.9,1-2.2,1.5-4,1.5c-1.7,0-3.1-0.5-4-1.5C115.7,36.2,115.3,34.8,115.3,33z M117.9,32.9
				c0,0.5,0,1,0.1,1.4c0.1,0.4,0.2,0.8,0.4,1.2c0.2,0.4,0.5,0.6,0.8,0.8c0.4,0.2,0.8,0.3,1.3,0.3c0.5,0,0.9-0.1,1.3-0.3
				c0.4-0.2,0.6-0.5,0.8-0.8c0.2-0.4,0.3-0.7,0.4-1.2c0.1-0.4,0.1-0.9,0.1-1.4v-0.7c0-0.5,0-1-0.1-1.4c-0.1-0.4-0.2-0.8-0.4-1.2
				c-0.2-0.4-0.5-0.6-0.8-0.8c-0.4-0.2-0.8-0.3-1.3-0.3c-0.5,0-0.9,0.1-1.3,0.3c-0.4,0.2-0.6,0.5-0.8,0.8c-0.2,0.4-0.3,0.7-0.4,1.2
				c-0.1,0.4-0.1,0.9-0.1,1.4C117.9,32.2,117.9,32.9,117.9,32.9z M128.4,38.5V26.6h2.7v1.5h0.1c0.4-1.1,1.4-1.7,2.8-1.7
				c0.3,0,0.6,0,0.9,0.1v2.3c-0.2-0.1-0.6-0.1-1.1-0.1c-1.8,0-2.7,0.9-2.7,2.8v7H128.4z M135.8,33.1v-1c0-1.7,0.5-3.1,1.4-4.1
				c0.9-1,2.2-1.5,3.8-1.5c1.6,0,2.9,0.5,3.8,1.5c0.9,1,1.3,2.4,1.3,4.1v1.1h-7.7v0.4c0,0.9,0.2,1.6,0.7,2.2c0.5,0.6,1.1,0.9,2,0.9
				c0.7,0,1.2-0.1,1.6-0.4c0.4-0.3,0.6-0.7,0.7-1.1h2.6c0,0.3-0.1,0.7-0.3,1c-0.1,0.3-0.3,0.7-0.6,1c-0.3,0.3-0.6,0.6-0.9,0.9
				c-0.4,0.2-0.8,0.4-1.3,0.6c-0.5,0.1-1.1,0.2-1.8,0.2c-1.7,0-3-0.5-3.9-1.5C136.3,36.2,135.8,34.8,135.8,33.1z M138.4,31.4h5.1v0
				c0-0.9-0.2-1.5-0.7-2.1s-1.1-0.8-1.9-0.8c-0.8,0-1.4,0.3-1.9,0.8C138.6,29.8,138.4,30.5,138.4,31.4L138.4,31.4z"/>
		</g>
	</g>
	<g>
		<polygon class="st2" points="160,15.6 144.4,0 123.8,0 160,36.2 		"/>
	</g>
	<g>
		<g>
			<path class="st3" d="M137,7.6c-0.2-0.4-0.3-0.7-0.3-1l0.9-0.4c0,0.3,0.1,0.6,0.3,0.8c0.1,0.3,0.3,0.5,0.6,0.8
				c0.2,0.2,0.5,0.4,0.6,0.4c0.2,0,0.3,0,0.5-0.1c0.1-0.1,0.1-0.2,0.1-0.3c0-0.1-0.1-0.3-0.1-0.4c-0.1-0.1-0.2-0.3-0.3-0.6
				c-0.2-0.4-0.4-0.6-0.5-0.9c-0.1-0.2-0.2-0.5-0.1-0.8c0-0.3,0.2-0.5,0.4-0.8c0.2-0.2,0.5-0.4,0.8-0.4c0.3-0.1,0.6,0,0.9,0.1
				c0.3,0.1,0.7,0.4,1,0.7c0.2,0.2,0.4,0.5,0.6,0.8c0.2,0.3,0.3,0.6,0.3,0.8l-0.9,0.4c-0.1-0.5-0.4-1-0.7-1.3
				c-0.2-0.2-0.5-0.4-0.7-0.4c-0.2,0-0.4,0-0.5,0.1c-0.1,0.1-0.2,0.3-0.1,0.5c0.1,0.2,0.2,0.5,0.4,0.8c0.2,0.3,0.4,0.6,0.5,0.9
				c0.1,0.2,0.2,0.5,0.1,0.8c0,0.3-0.1,0.5-0.4,0.8c-0.2,0.2-0.5,0.3-0.8,0.4c-0.3,0.1-0.6,0-1-0.1c-0.3-0.1-0.7-0.4-1-0.7
				C137.5,8.3,137.2,8,137,7.6z"/>
		</g>
		<g>
			<path class="st3" d="M140.9,11.3c-0.1-0.5-0.2-0.9,0-1.4c0.1-0.5,0.4-0.9,0.7-1.2s0.8-0.6,1.2-0.7c0.5-0.1,0.9-0.1,1.4,0
				c0.5,0.1,0.9,0.4,1.3,0.8c0.4,0.4,0.6,0.8,0.8,1.3s0.2,0.9,0,1.4c-0.1,0.5-0.4,0.9-0.7,1.2s-0.8,0.6-1.2,0.7
				c-0.5,0.1-0.9,0.1-1.4,0c-0.5-0.1-0.9-0.4-1.3-0.8C141.3,12.2,141.1,11.7,140.9,11.3z M143.2,12.3c0.3,0.1,0.6,0.1,0.8,0
				c0.3-0.1,0.5-0.2,0.8-0.5c0.2-0.2,0.4-0.5,0.5-0.8c0.1-0.3,0.1-0.6,0-0.8s-0.2-0.5-0.4-0.7c-0.2-0.2-0.5-0.4-0.7-0.4
				s-0.6-0.1-0.8,0c-0.3,0.1-0.5,0.2-0.8,0.5c-0.2,0.2-0.4,0.5-0.5,0.8c-0.1,0.3-0.1,0.6,0,0.8c0.1,0.3,0.2,0.5,0.4,0.7
				C142.7,12,142.9,12.2,143.2,12.3z"/>
		</g>
		<g>
			<path class="st3" d="M145.4,15.7c-0.1-0.5-0.2-0.9,0-1.4c0.1-0.5,0.4-0.9,0.7-1.2s0.8-0.6,1.2-0.7c0.5-0.1,0.9-0.1,1.4,0
				c0.5,0.1,0.9,0.4,1.3,0.8c0.4,0.4,0.6,0.8,0.8,1.3c0.1,0.5,0.2,0.9,0,1.4c-0.1,0.5-0.4,0.9-0.7,1.2s-0.8,0.6-1.2,0.7
				c-0.5,0.1-0.9,0.1-1.4,0c-0.5-0.1-0.9-0.4-1.3-0.8C145.8,16.6,145.5,16.2,145.4,15.7z M147.7,16.7c0.3,0.1,0.6,0.1,0.8,0
				c0.3-0.1,0.5-0.2,0.8-0.5c0.2-0.2,0.4-0.5,0.5-0.8c0.1-0.3,0.1-0.6,0-0.8s-0.2-0.5-0.4-0.7c-0.2-0.2-0.5-0.4-0.7-0.4
				s-0.6-0.1-0.8,0c-0.3,0.1-0.5,0.2-0.8,0.5c-0.2,0.2-0.4,0.5-0.5,0.8c-0.1,0.3-0.1,0.6,0,0.8c0.1,0.3,0.2,0.5,0.4,0.7
				C147.1,16.5,147.4,16.7,147.7,16.7z"/>
		</g>
		<g>
			<path class="st3" d="M156,19.3l-3.7,3.7l-0.7-0.7l0.4-4.1l-2.3,2.3l-0.8-0.8l3.7-3.7l0.7,0.7l-0.4,4.1l2.3-2.3L156,19.3z"/>
		</g>
	</g>
</g>
</svg>
